<svg width="2500" height="774" viewBox="0 0 2500 774" fill="none" xmlns="http://www.w3.org/2000/svg">
<rect width="2500" height="774" rx="68" fill="white"/>
<path d="M132.2 613.1V163L217.6 215.5V659.3L132.2 613.1ZM463.579 657.2L377.479 611L291.379 657.2V160.9L377.479 213.4L463.579 160.9L635.779 259.6V557.8L463.579 657.2ZM463.579 259.6L377.479 312.8V511.6L463.579 557.8L549.679 511.6V312.8L463.579 259.6ZM706.337 258.2L878.537 159.5L1050.74 258.2L964.637 305.1L878.537 258.2L792.437 311.4L964.637 410.8L878.537 457L792.437 410.8V510.2L878.537 556.4L1050.74 457V556.4L878.537 655.8L706.337 556.4V258.2ZM1102.06 219.7L1188.16 167.2V517.9L1273.56 564.1V663.5L1102.06 564.1V219.7ZM1222.32 361.1V209.2L1308.42 162.3V307.9L1395.22 361.1L1481.32 307.9V162.3L1566.72 209.2V559.9L1395.22 659.3L1308.42 606.1L1481.32 506.7V407.3L1395.22 460.5C1335.72 427.6 1282.52 394.7 1222.32 361.1ZM1800.67 263.1V362.5L1713.87 408.7V508.1L1800.67 561.3V580.9L1899.37 521.4L1972.17 561.3L1800.67 660.7L1627.77 561.3V362.5C1680.97 328.9 1740.47 296 1800.67 263.1ZM1800.67 561.3L1972.17 461.9V263.1L1800.67 163.7L1627.77 263.1L1693.57 303L1800.67 243.5V263.1L1886.07 309.3V408.7C1859.47 422 1839.87 435.3 1800.67 461.9V561.3ZM2042.76 258.2L2214.96 159.5L2387.16 258.2L2301.06 305.1L2214.96 258.2L2128.86 311.4L2301.06 410.8L2214.96 457L2128.86 410.8V510.2L2214.96 556.4L2387.16 457V556.4L2214.96 655.8L2042.76 556.4V258.2Z" fill="#E71C18"/>
</svg>
